<?xml version="1.0" encoding="utf-8"?>
<!-- Generator: Adobe Illustrator 26.5.0, SVG Export Plug-In . SVG Version: 6.00 Build 0)  -->
<svg version="1.1" id="Layer_1" xmlns="http://www.w3.org/2000/svg" xmlns:xlink="http://www.w3.org/1999/xlink" x="0px" y="0px"
	 viewBox="0 0 1920 1080" style="enable-background:new 0 0 1920 1080;" xml:space="preserve">
<style type="text/css">
	.st0{fill:url(#SVGID_1_);}
	.st1{fill:url(#SVGID_00000028319238795619270600000016100498909879532430_);}
	.st2{fill:url(#SVGID_00000156575991082012152420000007201000919931251848_);}
	.st3{fill:url(#SVGID_00000101071210573337801100000003753401761047697038_);}
	.st4{fill:url(#SVGID_00000058555379145055830420000008642121224879872411_);}
	.st5{fill:url(#SVGID_00000073720550320581778090000003156902978313904562_);}
	.st6{fill:url(#SVGID_00000034780312797748012690000015995448946939242125_);}
	.st7{fill:url(#SVGID_00000136411020648790637480000003529787493637803163_);}
	.st8{fill:url(#SVGID_00000062153894757305039560000000137637544165990556_);}
	.st9{fill:url(#SVGID_00000154406124440071489930000008667977283876361642_);}
	.st10{fill:url(#SVGID_00000118355788048934274360000011932714813201665453_);}
	.st11{fill:url(#SVGID_00000152256942499778774870000012237781310243470777_);}
	.st12{fill:#2B3272;}
</style>
<g>
	<linearGradient id="SVGID_1_" gradientUnits="userSpaceOnUse" x1="1386.1564" y1="457.6232" x2="1386.1564" y2="683.8066">
		<stop  offset="0" style="stop-color:#FF8E00"/>
		<stop  offset="0.9995" style="stop-color:#008D41"/>
	</linearGradient>
	<path class="st0" d="M1386.2,679.4c0,0,60.7-13.3,75.8-68.2c20.5-74.8-75.8-187.8-75.8-187.8s-96.2,113-75.8,187.8
		C1325.4,666.1,1386.2,679.4,1386.2,679.4z"/>
	<g>
		
			<linearGradient id="SVGID_00000085938509065945576410000005297278849376146864_" gradientUnits="userSpaceOnUse" x1="1281.9921" y1="457.6232" x2="1281.9921" y2="683.8066">
			<stop  offset="0" style="stop-color:#FF8E00"/>
			<stop  offset="0.9995" style="stop-color:#008D41"/>
		</linearGradient>
		<path style="fill:url(#SVGID_00000085938509065945576410000005297278849376146864_);" d="M1250.2,443c0,0-4.4,35.4-7,72.9
			c0,0,26.4,6.4,57.8,20.1c4.2-15.1,10.7-31.8,19.9-50.2C1320.8,485.9,1282.9,461,1250.2,443z"/>
		
			<linearGradient id="SVGID_00000044171113435961429420000009417768475897522850_" gradientUnits="userSpaceOnUse" x1="1262.1189" y1="457.6232" x2="1262.1189" y2="683.8066">
			<stop  offset="0" style="stop-color:#FF8E00"/>
			<stop  offset="0.9995" style="stop-color:#008D41"/>
		</linearGradient>
		<path style="fill:url(#SVGID_00000044171113435961429420000009417768475897522850_);" d="M1298.2,547.3
			c-23.2-8.5-99.2-35-160.2-43.7c0,0,23,90.8,97.3,152.9c66.6,55.7,150.8,24.7,150.8,24.7S1273.4,662.7,1298.2,547.3z"/>
	</g>
	
		<linearGradient id="SVGID_00000059278383034140863350000015620341800212428222_" gradientUnits="userSpaceOnUse" x1="1225.3645" y1="457.6232" x2="1225.3645" y2="683.8066">
		<stop  offset="0" style="stop-color:#FF8E00"/>
		<stop  offset="0.9995" style="stop-color:#008D41"/>
	</linearGradient>
	<path style="fill:url(#SVGID_00000059278383034140863350000015620341800212428222_);" d="M1228.6,664.2
		c-43.6-34.3-27.8-30.7-64.7-54.6c-35.3-22.9-76.1-21.1-99.4-17.2c18.2,17.3,44.6,38.6,60.6,50.7c31,23.5,68.1,47.8,112.2,61.7
		c90.8,28.6,148.8-22.2,148.8-22.2S1295.3,716.6,1228.6,664.2z"/>
	<g>
		
			<linearGradient id="SVGID_00000104679269342689886390000004821664011777286335_" gradientUnits="userSpaceOnUse" x1="1490.4" y1="457.6232" x2="1490.4" y2="683.8066">
			<stop  offset="0" style="stop-color:#FF8E00"/>
			<stop  offset="0.9995" style="stop-color:#008D41"/>
		</linearGradient>
		<path style="fill:url(#SVGID_00000104679269342689886390000004821664011777286335_);" d="M1522.2,443c0,0,4.4,35.4,7,72.9
			c0,0-26.4,6.4-57.8,20.1c-4.2-15.1-10.7-31.8-19.9-50.2C1451.6,485.9,1489.5,461,1522.2,443z"/>
		
			<linearGradient id="SVGID_00000110439249141616154940000011057773016097165474_" gradientUnits="userSpaceOnUse" x1="1510.2731" y1="457.6232" x2="1510.2731" y2="683.8066">
			<stop  offset="0" style="stop-color:#FF8E00"/>
			<stop  offset="0.9995" style="stop-color:#008D41"/>
		</linearGradient>
		<path style="fill:url(#SVGID_00000110439249141616154940000011057773016097165474_);" d="M1474.2,547.3
			c23.2-8.5,99.2-35,160.2-43.7c0,0-23,90.8-97.3,152.9c-66.6,55.7-150.8,24.7-150.8,24.7S1499,662.7,1474.2,547.3z"/>
	</g>
	
		<linearGradient id="SVGID_00000029734836527861618330000013793231944937494964_" gradientUnits="userSpaceOnUse" x1="1547.0275" y1="457.6232" x2="1547.0275" y2="683.8066">
		<stop  offset="0" style="stop-color:#FF8E00"/>
		<stop  offset="0.9995" style="stop-color:#008D41"/>
	</linearGradient>
	<path style="fill:url(#SVGID_00000029734836527861618330000013793231944937494964_);" d="M1543.7,664.2
		c43.6-34.3,27.8-30.7,64.7-54.6c35.3-22.9,76.1-21.1,99.4-17.2c-18.2,17.3-44.6,38.6-60.6,50.7c-31,23.5-68.1,47.8-112.2,61.7
		c-90.8,28.6-148.8-22.2-148.8-22.2S1477.1,716.6,1543.7,664.2z"/>
</g>
<linearGradient id="SVGID_00000000198838169744224020000005120417061609063048_" gradientUnits="userSpaceOnUse" x1="889.9507" y1="416.499" x2="889.9507" y2="646.4285">
	<stop  offset="0" style="stop-color:#FF8E00"/>
	<stop  offset="0.9995" style="stop-color:#008D41"/>
</linearGradient>
<path style="fill:url(#SVGID_00000000198838169744224020000005120417061609063048_);" d="M853.5,611.4l160-185.8v0
	c22.9-26.7,36.8-61.3,36.8-99.3c0-84.1-68.2-152.3-152.3-152.3c-59.3,0-110.7,33.9-135.8,83.4l43.9,43.3
	c11.2-40.3,48-69.9,91.9-69.9c52.7,0,95.5,42.7,95.5,95.5c0,23.3-8.4,44.7-22.2,61.2l0,0L727.1,671.1h75h250.7v-59.7H853.5z"/>
<g>
	
		<linearGradient id="SVGID_00000100347266452680359810000012318707145604690330_" gradientUnits="userSpaceOnUse" x1="672.4896" y1="416.499" x2="672.4896" y2="646.4285">
		<stop  offset="0" style="stop-color:#FF8E00"/>
		<stop  offset="0.9995" style="stop-color:#008D41"/>
	</linearGradient>
	
		<line style="fill:url(#SVGID_00000100347266452680359810000012318707145604690330_);" x1="694.1" y1="254.3" x2="650.9" y2="297.6"/>
	
		<linearGradient id="SVGID_00000126307936561181714670000005728481676633904305_" gradientUnits="userSpaceOnUse" x1="503.385" y1="416.499" x2="503.385" y2="646.4285">
		<stop  offset="0" style="stop-color:#FF8E00"/>
		<stop  offset="0.9995" style="stop-color:#008D41"/>
	</linearGradient>
	<path style="fill:url(#SVGID_00000126307936561181714670000005728481676633904305_);" d="M759.1,408.4h-61.2H496.2v59.7h197.8
		C674.7,555.5,596.7,621,503.4,621C395.5,621,308,533.5,308,425.6s87.5-195.4,195.4-195.4c58.9,0,111.7,26.1,147.5,67.3l43.2-43.2
		c-46.9-52.2-115-85.1-190.7-85.1C361.8,169.2,247,284,247,425.6S361.8,682,503.4,682c141.6,0,256.4-114.8,256.4-256.4
		C759.8,419.8,759.5,414.1,759.1,408.4z"/>
	
		<linearGradient id="SVGID_00000011014472794677821970000011608424517198115719_" gradientUnits="userSpaceOnUse" x1="650.8682" y1="297.5838" x2="650.8682" y2="297.5838">
		<stop  offset="0" style="stop-color:#FF8E00"/>
		<stop  offset="0.9995" style="stop-color:#008D41"/>
	</linearGradient>
	<path style="fill:url(#SVGID_00000011014472794677821970000011608424517198115719_);" d="M650.9,297.6"/>
</g>
<radialGradient id="SVGID_00000039118892061955231120000000504063877585580440_" cx="1373.4446" cy="291.2113" r="222.5691" gradientUnits="userSpaceOnUse">
	<stop  offset="0" style="stop-color:#C1E3F7"/>
	<stop  offset="5.915707e-02" style="stop-color:#AED5EF"/>
	<stop  offset="0.1984" style="stop-color:#87B8DE"/>
	<stop  offset="0.3427" style="stop-color:#679FD0"/>
	<stop  offset="0.4913" style="stop-color:#4E8DC5"/>
	<stop  offset="0.6457" style="stop-color:#3C7FBD"/>
	<stop  offset="0.8097" style="stop-color:#3178B8"/>
	<stop  offset="1" style="stop-color:#2E75B7"/>
</radialGradient>
<path style="fill:url(#SVGID_00000039118892061955231120000000504063877585580440_);" d="M1234.6,489.8c-0.2-1.2-1.8-1.7-3.1-0.5
	c-1.4,1.1-1.7,3.1-1.6,4.8c0.2,1.7-0.6,3.9,1.1,5.1c1.4,0.7,2.3-0.2,3.4-0.2C1234.8,495.5,1234.9,493.3,1234.6,489.8z M1265.5,362.3
	c-1.9-0.3-5.5-1.4-5.7,0.8c0.4,2.2,3.4,3.6,5.3,2.5C1267.1,364.3,1267,362.8,1265.5,362.3z M1357,395.2c-0.5,3.8,0.6,2.5,1,5.2
	c0.2-2.4,0.5-1.8,0.7-4.2C1357.5,396,1357.3,395.6,1357,395.2z M1491,433.4c-0.6,1.7,0.6,3.7,2.4,4c1.5,0.3,3.2-1,3.8-0.7
	C1495.9,434.7,1493.5,433.3,1491,433.4z M1469.8,399.3c-1.1-1.4-2.4-2.7-2.8-4.4c-0.1,1-0.1,2.2,0.2,3c0.8,2.1,1.6,4.3,2.5,6.5
	c0.1,0.2,0.2,0.5,0.5,0.6c0.5,0.2,1-0.3,1.1-0.8C1471.8,402.5,1470.9,400.7,1469.8,399.3z M1464,385.5c-1.5,0-1.2,2.8,0.5,3.5
	C1464.4,387.9,1464.2,386.7,1464,385.5z M1467.1,369.3c-3.5,3.5-4.1,8.4-2.6,12.6c0.1,0.4,0.5,0.8,0.8,0.6c0.1-0.1,0.1-0.2,0.2-0.4
	C1466.9,378.1,1464.9,373.1,1467.1,369.3z M1403.5,400.4c-2.4-2.1-5.1-4.2-5.7-7.3c-2.2,3.4-3.4,8.9-2.8,14.4
	c0.2,2.5,0.9,5.1,2.8,6.7c2.2,1.9,5.7,1.8,8.4,0.6c0.8-0.4,1.5-0.8,2-1.5c0.8-0.9,0.9-2.2,0.9-3.4
	C1408.8,406.1,1406.2,402.9,1403.5,400.4z M1617.3,451.6c-0.5-0.8-0.9-1.6-1.4-2.4c-1.1,0.8-2.6,1.2-3.9,1.2c-0.5,0-1-0.1-1.5,0.1
	c-1.2,0.3-1.6,1.6-2.2,2.6c-0.8,1.5-2.1,2.8-3.7,3.5c-0.5,0.2-1.1,0.4-1.6,0.4c-0.6-0.1-1.1-0.6-1.2-1.1c0-0.6,0.5-1.1,1-1.5
	c-0.6-0.6-1.6-0.6-2.3-0.1c-0.6,0.6-0.7,1.5-1.4,2c-0.3,0.2-0.7,0.4-1.1,0.4c-0.9,0.2-1.8,0.4-2.7,0.5c-1.1,0.2-2.2,0.5-2.8,1.4
	c-0.5,0.8-0.3,2.1,0.5,2.6c0.8,0.6,2,0.5,2.7-0.2c0.5-0.6,0.8-1.4,1.4-1.8c0.5-0.3,1.2-0.2,1.7-0.6c0.5-0.3,0.8-1,1.4-0.9
	c0.4,0.1,0.6,0.6,1,0.9c1.1,1.1,3.5-0.1,4.4,1.2c0.3,0.5,0.2,1.1,0.5,1.6c0.6,1.1,2.3,0.9,3.1,0c0.8-0.9,0.9-2.2,0.9-3.4
	c0.1-1.2,0.1-2.5,0.9-3.4c0.8-1.1,2.4-1.4,3.7-1.4c0.8,0,1.7,0.1,2.4-0.5C1617.5,452.2,1617.5,450.8,1617.3,451.6z M1552.8,444
	c-0.3-0.8-0.8-1.4-1.4-1.9c-1.5-0.1-2.9,1.3-2.9,2.8c0,0.3,0.1,0.5,0.2,0.7c0.1,0.1,0.3,0.2,0.5,0.2c0.4,0.1,0.8,0.2,1.2,0.4
	c0.6,0.2,1.3,0.4,1.9,0.1c0.6-0.2,1.1-0.9,1.1-1.6C1553.5,443.9,1553.2,443.2,1552.8,444z M1533.8,439.1v-0.2
	C1533.5,439,1533.6,439.1,1533.8,439.1z M1580.1,459.3c-1.4,0.2-2.7-0.8-3.9-1.6c-2.9-1.8-6.6-2.2-9.9-1.4c-3,0.7-5.8,2.4-8.7,3.1
	c-2.4,0.6-4.9,0.7-7.5,0.8c-1.7,0.1-3.5,0.1-4.9-0.8c-1.5-0.8-2.4-2.4-2.8-4.1c-0.4-1.7-0.4-3.4-0.2-5.1c0.1-1.2,0.2-2.7,1.3-3.4
	c0.5-0.3,1-0.4,1.5-0.6c0.9-0.4,1.5-1.2,1.5-2.2c-0.1-0.9-0.8-1.8-1.8-1.9c-0.7,0-1.4,0.4-2,0c-1-0.6-0.2-2.2-0.8-3.3
	c-1.8-0.4-3.6-0.6-5.4-0.5c-1.1,0.1-2.4,0.6-2.8,0.6c0.1,3.1,0.1,6.1,0.2,9.2c0.1,1,0.2,2.2,1.1,2.6c0.4,0.1,0.8,0.1,1,0.4
	c0.2,0.2,0.2,0.5,0.3,0.8c0.2,2.4-0.3,4.7,0.4,6.9c0.6,1.7,1.8,3.2,1.6,5.1c-0.1,0.4-0.2,0.9,0.1,1.2c0.2,0.3,0.6,0.4,1,0.4
	c3.2,0.2,6.4,0.5,9.6,0.6c1.5,0.1,3,0.2,4.5,0.1c2.7-0.2,5.3-1.2,8-1.6c3.5-0.6,7.4-0.1,10.6-1.7c1-0.5,1.9-1.2,3-1.6
	c1.6-0.5,3.2-0.3,4.9-0.5c1.6-0.1,3.5-0.9,3.9-2.5C1583,457.6,1581.4,459,1580.1,459.3z M1623,430.6c-0.2-0.4-0.6-0.5-0.8-0.8
	c-0.8-0.8-0.5-2.1-0.4-3.2c0.1-1.1-0.2-2.5-1.3-2.7c-0.4-0.1-0.8,0.1-1.2,0.1c-0.8-0.1-1.5-0.9-1.7-1.7c-0.2-0.8-0.1-1.7,0.1-2.6
	c0.1-0.4,0.2-0.8,0.5-1c0.2-0.2,0.6-0.3,0.9-0.4c1.5-0.4,2.5-2.1,2.1-3.5c0.6,0.3,0.3-0.6-0.3-1.1c-0.5-0.5-1.3-0.6-2-0.8
	c-0.5,1.1-1.8,1.6-3,1.4c-0.5-0.1-1.1-0.3-1.3,0.1c-0.2,0.2-0.1,0.5-0.1,0.8c0.1,0.9-0.1,1.9-0.7,2.6c-0.6,0.6-1.8,0.9-2.5,0.4
	c-0.5-0.4-0.8-1-1.2-1.5c-0.9-1.1-2.5-1.6-3.9-1.2c-1.4,0.5-2.4,1.8-2.5,3.2c-0.1,1.3,0.5,2.6,0.1,3.8c-0.2,0.5-0.5,0.8-0.7,1.2
	c-1.4,2.1-1.4,4.6-1.4,7.1c0,0.8,0.1,1.8,0.7,2.2c0.5,0.4,1.1,0.4,1.5,0.7c0.5,0.4,0.5,1.2,0.5,1.8c0,1.8,0.1,3.5,0.5,5.1
	c0.1,0.7,0.3,1.4,0.8,1.9c0.5,0.5,1.4,0.7,1.8,0.2c0.6-0.6,0.4-1.6,0.9-2.2c0.3-0.4,0.8-0.4,1.3-0.6c1-0.4,1.7-1.3,1.9-2.3
	c0.3-1.8-0.8-3.9,0.5-5.1c0.7-0.6,1.9-0.5,2.7,0.1c0.8,0.6,1.2,1.6,1.5,2.5c0.3,0.8,0.5,1.8,1.1,2.4c1.2,1.2,3.4,0.6,4.4-0.7
	c1.1-1.3,1.3-3.1,1.5-4.6C1623.2,431.4,1623.2,430.9,1623,430.6z M1602.6,405.7c-0.8,0.2-1.6,0.8-2.2,0.4c-0.2-0.2-0.4-0.6-0.4-0.9
	c-0.8-2.9-1.6-5.9-2.4-8.8c0.2-0.4,0.8-0.1,0.8,0.3c0,0.1-0.1,0.2-0.1,0.2c1.7-2.4,3.4-4.8,5.2-7.2c0.5-0.7,1-1.5,0.8-2.4
	c-0.3-1.2-1.8-1.5-2.9-1.4c-1.2,0.1-2.5,0.3-3.5-0.4c-0.8-0.6-1.1-1.6-1.6-2.5c-1.5-2.2-5.2-1.8-7.2,0.1c-2,1.8-2.9,4.5-4.2,6.9
	c-1.4,2.6-3.2,5-5,7.4c-3.4,4.3-6.8,8.7-11.3,11.7c-1.1,0.7-2.3,1.4-2.9,2.5c-0.8,1.3-0.6,3-1.5,4.2c-1.2,1.6-3.4,1.7-5.4,1.8
	c-1.9,0.1-4.2,0.5-5.1,2.4c-0.4,0.8-0.2,1.8-0.1,2.8c0.4,3.6,0.8,7.4,1.2,11.1c0.1,0.5,0.2,1,0.6,1.2c0.5,0.4,1.2-0.1,1.9-0.2
	c1.4-0.2,2.4,1.4,2.5,2.8c0.2,1.4-0.2,2.8,0.2,4.1c0.1,0.4,0.3,0.7,0.6,0.9c0.3,0.1,0.6,0.2,0.9,0.2c4.1,0.2,8.2,0,12.3-0.4
	c1.1-0.1,2.4-0.5,2.5-1.6c0.1-0.5-0.1-1.1,0.2-1.4c0.2-0.2,0.5-0.2,0.8-0.1c1.7,0.1,3.6,0.4,4.5,1.9c0.4,0.6,0.6,1.6,1.4,1.6
	c0.6,0.1,1.1-0.6,1.8-0.7c0.6,0,1.3,0.5,1.8,0.2c0.5-0.3,0.4-1,0.4-1.5c0.1-1.1,1.1-1.9,2.1-2.4c1-0.5,2.1-0.7,3.1-1.3
	c2.4-1.5,2.8-4.7,2.5-7.5c-0.2-1.3-0.5-2.6-0.5-4c0.1-1.4,0.7-2.8,1.9-3.4c0.5-0.3,1.1-0.4,1.6-0.7c1.4-0.8,1.9-2.6,1.9-4.2
	c-0.1-1.6-0.5-3.3-0.5-4.9c0-0.2,0.1-0.5,0.2-0.6c0.2-0.2,0.6-0.3,0.9-0.3c1.6-0.1,3.5-0.6,4.3-2.2
	C1605.5,407.6,1604.3,405.3,1602.6,405.7z M1616.9,336.1c-2.1-1.4-4.9-0.1-7.3-1.1c-2-0.8-3.1-3.1-3.2-5.2c-0.1-2.2,0.5-4.3,0.9-6.5
	c0.4-2.1,0.5-4.5-0.5-6.4c-0.4-0.6-0.8-1.2-1.5-1.5c-0.6-0.2-1.2-0.2-1.9-0.2c-2.1,0.1-4.1,0.2-5.7-0.5c-0.3,4.1,1.4,8.2,0.3,12.2
	c-0.6,2.2-2.1,4.4-1.4,6.6c0.6,1.9,2.8,2.9,4.1,4.5c1.6,1.9,2.1,4.5,2.6,6.9c0.2,1.2,0.6,2.4,1.5,3.1c0.8,0.8,2.3,1.1,3.1,0.3
	c0.6-0.6,0.8-1.5,0.7-2.4c0-1.3-0.2-2.6-0.6-3.9c-0.1-0.3-0.2-0.6-0.1-0.9c0.1-0.4,0.5-0.6,0.8-0.9c1.4-0.9,3.6-1.8,4.6-0.4
	c0.5,0.6,0.4,1.5,0.9,2.2c0.7,1.1,2.4,1.1,3.4,0.2c1-0.8,1.2-2.3,1-3.6C1618.5,337.8,1617.9,336.8,1616.9,336.1z M1597,294.6
	c0.2-4.7-0.2-9.6-1.9-14c-0.3-0.7-0.6-1.5-1.2-2c-0.6-0.5-1.5-0.7-2.2-0.3c-1.2,0.6-0.8,2.6-1.6,3.6c-0.4,0.4-0.9,0.6-1.2,1
	c-1.2,1.1-0.9,3-0.6,4.6c0.4,2.2,0.8,4.3,1.2,6.5c0.2,1,0.4,2.2,1.3,2.8c0.5,0.4,1.1,0.5,1.7,0.6c1.2,0.2,2.5,0.1,3.5-0.6
	c0.9-0.8,1.2-1.9,1.2-2.3C1597,294.4,1597,294.4,1597,294.6z M1623,430.6c-0.2-0.4-0.6-0.5-0.8-0.8c-0.8-0.8-0.5-2.1-0.4-3.2
	c0.1-1.1-0.2-2.5-1.3-2.7c-0.4-0.1-0.8,0.1-1.2,0.1c-0.8-0.1-1.5-0.9-1.7-1.7c-0.2-0.8-0.1-1.7,0.1-2.6c0.1-0.4,0.2-0.8,0.5-1
	c0.2-0.2,0.6-0.3,0.9-0.4c1.5-0.4,2.5-2.1,2.1-3.5c0.6,0.3,0.3-0.6-0.3-1.1c-0.5-0.5-1.3-0.6-2-0.8c-0.5,1.1-1.8,1.6-3,1.4
	c-0.5-0.1-1.1-0.3-1.3,0.1c-0.2,0.2-0.1,0.5-0.1,0.8c0.1,0.9-0.1,1.9-0.7,2.6c-0.6,0.6-1.8,0.9-2.5,0.4c-0.5-0.4-0.8-1-1.2-1.5
	c-0.9-1.1-2.5-1.6-3.9-1.2c-1.4,0.5-2.4,1.8-2.5,3.2c-0.1,1.3,0.5,2.6,0.1,3.8c-0.2,0.5-0.5,0.8-0.7,1.2c-1.4,2.1-1.4,4.6-1.4,7.1
	c0,0.8,0.1,1.8,0.7,2.2c0.5,0.4,1.1,0.4,1.5,0.7c0.5,0.4,0.5,1.2,0.5,1.8c0,1.8,0.1,3.5,0.5,5.1c0.1,0.7,0.3,1.4,0.8,1.9
	c0.5,0.5,1.4,0.7,1.8,0.2c0.6-0.6,0.4-1.6,0.9-2.2c0.3-0.4,0.8-0.4,1.3-0.6c1-0.4,1.7-1.3,1.9-2.3c0.3-1.8-0.8-3.9,0.5-5.1
	c0.7-0.6,1.9-0.5,2.7,0.1c0.8,0.6,1.2,1.6,1.5,2.5c0.3,0.8,0.5,1.8,1.1,2.4c1.2,1.2,3.4,0.6,4.4-0.7c1.1-1.3,1.3-3.1,1.5-4.6
	C1623.2,431.4,1623.2,430.9,1623,430.6z M1616.9,336.1c-2.1-1.4-4.9-0.1-7.3-1.1c-2-0.8-3.1-3.1-3.2-5.2c-0.1-2.2,0.5-4.3,0.9-6.5
	c0.4-2.1,0.5-4.5-0.5-6.4c-0.4-0.6-0.8-1.2-1.5-1.5c-0.6-0.2-1.2-0.2-1.9-0.2c-2.1,0.1-4.1,0.2-5.7-0.5c-0.3,4.1,1.4,8.2,0.3,12.2
	c-0.6,2.2-2.1,4.4-1.4,6.6c0.6,1.9,2.8,2.9,4.1,4.5c1.6,1.9,2.1,4.5,2.6,6.9c0.2,1.2,0.6,2.4,1.5,3.1c0.8,0.8,2.3,1.1,3.1,0.3
	c0.6-0.6,0.8-1.5,0.7-2.4c0-1.3-0.2-2.6-0.6-3.9c-0.1-0.3-0.2-0.6-0.1-0.9c0.1-0.4,0.5-0.6,0.8-0.9c1.4-0.9,3.6-1.8,4.6-0.4
	c0.5,0.6,0.4,1.5,0.9,2.2c0.7,1.1,2.4,1.1,3.4,0.2c1-0.8,1.2-2.3,1-3.6C1618.5,337.8,1617.9,336.8,1616.9,336.1z M1617.3,451.6
	c-0.5-0.8-0.9-1.6-1.4-2.4c-1.1,0.8-2.6,1.2-3.9,1.2c-0.5,0-1-0.1-1.5,0.1c-1.2,0.3-1.6,1.6-2.2,2.6c-0.8,1.5-2.1,2.8-3.7,3.5
	c-0.5,0.2-1.1,0.4-1.6,0.4c-0.6-0.1-1.1-0.6-1.2-1.1c0-0.6,0.5-1.1,1-1.5c-0.6-0.6-1.6-0.6-2.3-0.1c-0.6,0.6-0.7,1.5-1.4,2
	c-0.3,0.2-0.7,0.4-1.1,0.4c-0.9,0.2-1.8,0.4-2.7,0.5c-1.1,0.2-2.2,0.5-2.8,1.4c-0.5,0.8-0.3,2.1,0.5,2.6c0.8,0.6,2,0.5,2.7-0.2
	c0.5-0.6,0.8-1.4,1.4-1.8c0.5-0.3,1.2-0.2,1.7-0.6c0.5-0.3,0.8-1,1.4-0.9c0.4,0.1,0.6,0.6,1,0.9c1.1,1.1,3.5-0.1,4.4,1.2
	c0.3,0.5,0.2,1.1,0.5,1.6c0.6,1.1,2.3,0.9,3.1,0c0.8-0.9,0.9-2.2,0.9-3.4c0.1-1.2,0.1-2.5,0.9-3.4c0.8-1.1,2.4-1.4,3.7-1.4
	c0.8,0,1.7,0.1,2.4-0.5C1617.5,452.2,1617.5,450.8,1617.3,451.6z M1602.6,405.7c-0.8,0.2-1.6,0.8-2.2,0.4c-0.2-0.2-0.4-0.6-0.4-0.9
	c-0.8-2.9-1.6-5.9-2.4-8.8c0.2-0.4,0.8-0.1,0.8,0.3c0,0.1-0.1,0.2-0.1,0.2c1.7-2.4,3.4-4.8,5.2-7.2c0.5-0.7,1-1.5,0.8-2.4
	c-0.3-1.2-1.8-1.5-2.9-1.4c-1.2,0.1-2.5,0.3-3.5-0.4c-0.8-0.6-1.1-1.6-1.6-2.5c-1.5-2.2-5.2-1.8-7.2,0.1c-2,1.8-2.9,4.5-4.2,6.9
	c-1.4,2.6-3.2,5-5,7.4c-3.4,4.3-6.8,8.7-11.3,11.7c-1.1,0.7-2.3,1.4-2.9,2.5c-0.8,1.3-0.6,3-1.5,4.2c-1.2,1.6-3.4,1.7-5.4,1.8
	c-1.9,0.1-4.2,0.5-5.1,2.4c-0.4,0.8-0.2,1.8-0.1,2.8c0.4,3.6,0.8,7.4,1.2,11.1c0.1,0.5,0.2,1,0.6,1.2c0.5,0.4,1.2-0.1,1.9-0.2
	c1.4-0.2,2.4,1.4,2.5,2.8c0.2,1.4-0.2,2.8,0.2,4.1c0.1,0.4,0.3,0.7,0.6,0.9c0.3,0.1,0.6,0.2,0.9,0.2c4.1,0.2,8.2,0,12.3-0.4
	c1.1-0.1,2.4-0.5,2.5-1.6c0.1-0.5-0.1-1.1,0.2-1.4c0.2-0.2,0.5-0.2,0.8-0.1c1.7,0.1,3.6,0.4,4.5,1.9c0.4,0.6,0.6,1.6,1.4,1.6
	c0.6,0.1,1.1-0.6,1.8-0.7c0.6,0,1.3,0.5,1.8,0.2c0.5-0.3,0.4-1,0.4-1.5c0.1-1.1,1.1-1.9,2.1-2.4c1-0.5,2.1-0.7,3.1-1.3
	c2.4-1.5,2.8-4.7,2.5-7.5c-0.2-1.3-0.5-2.6-0.5-4c0.1-1.4,0.7-2.8,1.9-3.4c0.5-0.3,1.1-0.4,1.6-0.7c1.4-0.8,1.9-2.6,1.9-4.2
	c-0.1-1.6-0.5-3.3-0.5-4.9c0-0.2,0.1-0.5,0.2-0.6c0.2-0.2,0.6-0.3,0.9-0.3c1.6-0.1,3.5-0.6,4.3-2.2
	C1605.5,407.6,1604.3,405.3,1602.6,405.7z M1597,294.6c0.2-4.7-0.2-9.6-1.9-14c-0.3-0.7-0.6-1.5-1.2-2c-0.6-0.5-1.5-0.7-2.2-0.3
	c-1.2,0.6-0.8,2.6-1.6,3.6c-0.4,0.4-0.9,0.6-1.2,1c-1.2,1.1-0.9,3-0.6,4.6c0.4,2.2,0.8,4.3,1.2,6.5c0.2,1,0.4,2.2,1.3,2.8
	c0.5,0.4,1.1,0.5,1.7,0.6c1.2,0.2,2.5,0.1,3.5-0.6c0.9-0.8,1.2-1.9,1.2-2.3C1597,294.4,1597,294.4,1597,294.6z M1580.1,459.3
	c-1.4,0.2-2.7-0.8-3.9-1.6c-2.9-1.8-6.6-2.2-9.9-1.4c-3,0.7-5.8,2.4-8.7,3.1c-2.4,0.6-4.9,0.7-7.5,0.8c-1.7,0.1-3.5,0.1-4.9-0.8
	c-1.5-0.8-2.4-2.4-2.8-4.1c-0.4-1.7-0.4-3.4-0.2-5.1c0.1-1.2,0.2-2.7,1.3-3.4c0.5-0.3,1-0.4,1.5-0.6c0.9-0.4,1.5-1.2,1.5-2.2
	c-0.1-0.9-0.8-1.8-1.8-1.9c-0.7,0-1.4,0.4-2,0c-1-0.6-0.2-2.2-0.8-3.3c-1.8-0.4-3.6-0.6-5.4-0.5c-1.1,0.1-2.4,0.6-2.8,0.6
	c0.1,3.1,0.1,6.1,0.2,9.2c0.1,1,0.2,2.2,1.1,2.6c0.4,0.1,0.8,0.1,1,0.4c0.2,0.2,0.2,0.5,0.3,0.8c0.2,2.4-0.3,4.7,0.4,6.9
	c0.6,1.7,1.8,3.2,1.6,5.1c-0.1,0.4-0.2,0.9,0.1,1.2c0.2,0.3,0.6,0.4,1,0.4c3.2,0.2,6.4,0.5,9.6,0.6c1.5,0.1,3,0.2,4.5,0.1
	c2.7-0.2,5.3-1.2,8-1.6c3.5-0.6,7.4-0.1,10.6-1.7c1-0.5,1.9-1.2,3-1.6c1.6-0.5,3.2-0.3,4.9-0.5c1.6-0.1,3.5-0.9,3.9-2.5
	C1583,457.6,1581.4,459,1580.1,459.3z M1552.8,444c-0.3-0.8-0.8-1.4-1.4-1.9c-1.5-0.1-2.9,1.3-2.9,2.8c0,0.3,0.1,0.5,0.2,0.7
	c0.1,0.1,0.3,0.2,0.5,0.2c0.4,0.1,0.8,0.2,1.2,0.4c0.6,0.2,1.3,0.4,1.9,0.1c0.6-0.2,1.1-0.9,1.1-1.6
	C1553.5,443.9,1553.2,443.2,1552.8,444z M1533.8,439.1v-0.2C1533.5,439,1533.6,439.1,1533.8,439.1z M1491,433.4
	c-0.6,1.7,0.6,3.7,2.4,4c1.5,0.3,3.2-1,3.8-0.7C1495.9,434.7,1493.5,433.3,1491,433.4z M1469.8,399.3c-1.1-1.4-2.4-2.7-2.8-4.4
	c-0.1,1-0.1,2.2,0.2,3c0.8,2.1,1.6,4.3,2.5,6.5c0.1,0.2,0.2,0.5,0.5,0.6c0.5,0.2,1-0.3,1.1-0.8
	C1471.8,402.5,1470.9,400.7,1469.8,399.3z M1467.1,369.3c-3.5,3.5-4.1,8.4-2.6,12.6c0.1,0.4,0.5,0.8,0.8,0.6
	c0.1-0.1,0.1-0.2,0.2-0.4C1466.9,378.1,1464.9,373.1,1467.1,369.3z M1464,385.5c-1.5,0-1.2,2.8,0.5,3.5
	C1464.4,387.9,1464.2,386.7,1464,385.5z M1403.5,400.4c-2.4-2.1-5.1-4.2-5.7-7.3c-2.2,3.4-3.4,8.9-2.8,14.4c0.2,2.5,0.9,5.1,2.8,6.7
	c2.2,1.9,5.7,1.8,8.4,0.6c0.8-0.4,1.5-0.8,2-1.5c0.8-0.9,0.9-2.2,0.9-3.4C1408.8,406.1,1406.2,402.9,1403.5,400.4z M1357,395.2
	c-0.5,3.8,0.6,2.5,1,5.2c0.2-2.4,0.5-1.8,0.7-4.2C1357.5,396,1357.3,395.6,1357,395.2z M1265.5,362.3c-1.9-0.3-5.5-1.4-5.7,0.8
	c0.4,2.2,3.4,3.6,5.3,2.5C1267.1,364.3,1267,362.8,1265.5,362.3z M1234.6,489.8c-0.2-1.2-1.8-1.7-3.1-0.5c-1.4,1.1-1.7,3.1-1.6,4.8
	c0.2,1.7-0.6,3.9,1.1,5.1c1.4,0.7,2.3-0.2,3.4-0.2C1234.8,495.5,1234.9,493.3,1234.6,489.8z M1608.4,265
	C1608.4,265,1608.4,265,1608.4,265c-0.2-0.5-0.5-0.9-0.8-1.4c-2.3-4-4.7-7.9-7.2-11.8c-0.3-0.5-0.6-0.9-0.9-1.4
	c-2.9-4.3-5.9-8.5-9-12.7c-0.5-0.6-0.9-1.2-1.4-1.8c-2.6-3.4-5.4-6.8-8.2-10c-0.4-0.5-0.8-0.9-1.2-1.4c-3.1-3.5-8.1-9-11.4-12.3
	l-0.1-0.1c-3.6-3.7-7.4-7.2-11.2-10.7c-0.6-0.5-1.2-1.1-1.9-1.6c-3.2-2.9-6.5-5.6-9.9-8.3c-0.9-0.7-1.8-1.4-2.6-2.1
	c-3.9-3-7.9-5.9-11.9-8.7c-0.1-0.1-0.2-0.1-0.3-0.2c-4.4-2.9-8.8-5.7-13.3-8.4c-0.7-0.4-1.4-0.8-2.1-1.2c-3.8-2.2-7.7-4.3-11.5-6.3
	c-0.9-0.5-1.9-1-2.8-1.5c-9.2-4.6-18.9-8.7-28.7-12.2c-0.9-0.3-1.7-0.6-2.6-0.9c-4.2-1.4-8.4-2.7-12.7-3.9c-1-0.3-2-0.6-3.1-0.9
	c-10.2-2.8-20.5-4.9-31.2-6.4c-1.1-0.1-2.1-0.2-3.2-0.4c-4.4-0.5-8.8-1-13.2-1.4c-1.1-0.1-2.3-0.2-3.5-0.2
	c-5.4-0.4-10.8-0.6-16.3-0.6c-115,0-212.3,75.8-244.8,180.1c-7.5,24.1-11.5,49.7-11.5,76.3c0,8.8,0.4,17.5,1.3,26.1
	c0.1,0.2,0.1,0.4,0.1,0.6c0.4,4.1,0.9,8.1,1.5,12.1c0.1,0.5,0.2,0.9,0.2,1.4c0.6,3.7,1.2,7.4,2,11.1c0.1,0.7,0.3,1.4,0.5,2.1
	c0.7,3.4,1.5,6.8,2.4,10.1c0.2,1.1,0.5,2.1,0.8,3.1c0.8,3,1.6,6,2.5,8.9c0.4,1.4,0.9,2.7,1.4,4.1c0.8,2.5,1.6,5.1,2.6,7.7
	c0.6,1.8,1.4,3.5,2.1,5.2c0.6,1.8,1.3,3.6,2.1,5.4c1,2.5,2.1,4.9,3.2,7.4c4.5,0.7,9.1,1.6,13.7,2.6c-6.9-14-12.5-28.8-16.7-44.3
	c4.5,5.9,7.1,8.3,10.7,13.6c1.8,2.6,5.7,9,7.7,11.4c4.2,4.9,5.3,9.5,10.9,12.8c2.8,2.1,11.4,3,14.7,4c5.4,1.4,9.2,1.9,15.4,3.6
	c-1.7-2-3.3-4.1-4.6-6.3c-1.4-2.3-1.3-1.7-2.3-4.2c-0.8-2.2,2.9-3.5,3.9-4.5c2.8-3.1,5,0.8,7.6-1.7c3.9-3.7-1.4-14-2.2-18.8
	c-1.4-8.3-6.8-10.5-7.4-15.6c-1.8-15.1-4.7-8.7-4.1-16.2c0.8-7,0.6-8.5,14.5-20.9c5-4.4,10.2-4.1,18.1-12.7
	c9.3-12,16.1-21.8,17.9-37.4c-10.9,0.8-19.7,0.5-30.5-1c-0.8-2.6-4.4-5.7-2.6-10.8c1.9,0.2,3.6,1.2,7.2,0.9c1.1-0.1,2-1.7,3.2-1.8
	c1.7-0.2,1.6,1.3,5.1,1c0.8-0.1,2.5-0.9,3.2-1c1.5-0.3,2.7,0.8,4.3,0.4c1.7-0.4,1.5-2.1,3.3-2.6c3.9-1,7.6-0.1,11.8-1.4
	c1.7-0.5,0.9-3.2,2.6-3.8c1.4-0.5,2.9-1.2,4.4-1.2c2.1,0,3.2,1.1,5.5,1c2.1-0.1,3.6-3.5,5.5-4.2c1.6-0.6,3.5,0.6,4.6-0.8
	c0.5-0.6-0.2-2,1.4-3c1.4-0.9,3.1,0.5,5.1-0.5c0.9-0.4-0.2-3.9,0.8-4.4c3.4-1.8,5.7-6,6.7-7.2c2.9-3.4,5.1-4.8,4.2-6.5
	c-0.5-0.9-2.2-2.5-2.6-3.5c-2.7-5.8-3.6-4.2-6.8-6.6c-1.3-1-2.4-1.7-3-2.8c-0.4-0.8-0.4-1.8-0.4-2.6c0.1-1.4-0.6-2.2-0.5-2.9
	c0.4-2.8,2.2-5.3,0.6-6.1c-1.9-0.2-4.6,4.6-8.4,6.6c-3.9,2.1-8.9,1.6-13.1,0.4c-2.1-3.7,3-10.2,0-11.3c-2-0.7-2.5,2.7-4,1.4
	c-0.3-0.2,0.4-2.6,0.2-5c-0.2-1.7-3-7.4-3.3-9.6c-0.6-4.5-1.6-6.6,0.1-7.9c2-1.6,5.7-0.4,6,1.4c0.2,1.3,1.3,6.1,1.8,11
	c0.2,1.7,2.4,1.2,5.2,4c1.4,1.4,3.3,7.5,11.3,8.1c2.9,0.2,4.4-2.9,6.3-0.3c1,1.4-1.2,4.6,1.4,6.6c5.5,3.3,5,1.8,13.1,5.3
	c1.6,0.7,8.3,2.1,10.9,2.1c5.1-0.1,8.2,1.3,13.3,1.2c0.8,0,2.6,0.1,3.3,0.5c1,0.5,0.9,2.1,2,3.2c1.6,2.1,0.2,4,2.3,5.3
	c3.4,2.1,5.3,3.9,7.4,6.9c0.7,0.9-1.6,1-1,2c0.6,1,1.9,4,3.4,5.4c1.1,1.2,2.1,3.1,3.4,4.1c2.9,2.3,6.5,0.2,9.9-1.6
	c0.5-0.2,1-0.5,1,0.6c-0.2,9.4,1.3,14.9,2,19.1c1.2,7.8,1.2,9.4,6.5,18.1c2.1,6.3,2,10.1,6.1,15.8c3.2,5.7,3.9,11.4,5.5,13.7
	c0.9,1.2,4,5.2,5.4,5.2c2.6,0,3.7-2.2,5.4-4.4c1.1-1.5,1.3-0.4,2.5-1.4c1.9-1.7,0.1-5.6,5.1-6.2c2-2.5-0.8-5.5,0.1-7.9
	c3.8-3.3,2.1-14.2,1.2-18.5c0.1-1,1.6-2.8,4.1-2.7c0.9,0,2.4-2.9,4.8-3.4c1.5-1.4,1.9-0.1,3.5-1.4c0.9-1-0.7-2.2,1.7-3.8
	c5-2.5,10.9-11.4,17.8-15.3c1.2-0.7,3-1.8,3.2-3.2c-0.2-8.1,7.9-4.8,11.3-6c5.4-2,8-1.4,8.7-3.6c0.3-0.9,0.4-2,1.3-2.2
	c1.1-0.4,1.9,2.1,2.3,3.2c0.4,1,1.7,4.4,1.9,5.5c1,4.4,7.2,2.6,9.5,9.4c1.4,4.2,7.1,3,3.3,13.7c-1,2.8,2.6,4.3,5.2,4.6
	c2.8,0.3,5.1-1.7,6.9-3.8c1.6-1.8,3.3-3.7,5.1-1.6c1.1,1.2,2,3.7,2,5.2c0.1,4.2,3.2,6.1,4.5,9.9c0.8,2.3-0.2,4.2,0.4,5.6
	c2.9,3.5,1,7.6,1.8,11.2c0.5,1.1-0.4,2.4-0.4,3.7c0.1,3.2-0.7,5.9,4.2,8.1c4.4,5.1,7.5,6,8.1,13.8c0.6,1.3,0.9,3.9,2.9,6.5
	c0.9,1.1,1.6,1.5,2.2,3.2c0.6,1.2,1.1,1.9,0.3,2.2c-1.4,0.5-4.4-1.5-5.8-2.9c-3.3-3.3-9.7-2.6-10.9-7.1c-0.3-1-1.9-0.2-2.4-1.6
	c-0.2-0.5-2.2-0.2-2.7-0.2c-3.2,0.1-5.5-0.5-8.8-0.4c-1.3,0-3-0.2-2.9,1c0.4,3,1.2,3.5,2.4,5.1c1.6,2.1,4.4,2.1,6.9,2.9
	c3.8,1.3,3.5,5,7.9,7.1c2.9,1.4,3.3,3.1,4.3,7.5c0.1,0.5,0.8,0.8,1.3,1.1c0.6,0.4,3.3-1.8,3.9-2.3c6.5-4.4,13.2-6.9,20-10.7
	c0.4-0.2,0.9-0.4,1.3-0.3c0.4,0.1,0.6,0.5,0.8,0.9c0.8,1.4,0.5,1.7,1.3,3.1c2.2-1.3,1.5-2.5-0.2-4.3c-0.6-0.7-2.4-2.2-3-2.9
	c-2.7-2.9-0.2-6.3-1.6-10c-1.1-2.9-4.9-5.3-7.7-6.7c-7.9-2.8-7.7-4-9.4-8.4c-3.9-7.8-5.3-4.3-7.1-7c-0.6-0.9-0.1-3-0.1-4.1
	c0-1,1.7-3.7,2-4.6c1.2-3,1.1-4.9,1.2-8.1c0.1-1.2,0-2.2,0.8-3.1c0.8-0.9,1.1-0.8,1.8,0.2c0.4,0.5,1,2,1.2,2.5
	c0.4,1.9,4.9-1,5.8,2.2c1.2,0.3,3.3-0.3,4.4,0.3c2.2,5.3,5.4,7.3,9.9,7.3c1.6,0,2,1.5,2,3.3c0,1.1,0.1,2.5,0,3.3
	c-0.2,2.2,1.2,2.6,2.1,2.3c3.2-3.8,4.8-4.5,6.4-6.8c3.4-7.3,7.8-6.5,11.4-11.5c1.4-1.8,2.1-5.2,2.1-7.5c0-2.5-1.1-6.6-1.9-8.9
	c-3.1-9.2-10.1-11-16.3-17.3c-2-1.5-4.9-3.8-5-6.8c-0.1-4.5,3.4-5.6,5.9-9.4c1.5-2.4,3.2-4.9,5.8-5.9c2.6-1,5.7,2.3,5.7,5.1
	c0.1,2.1-0.7,2.2-2.2,3.6c-2.4,2-3.1,4.3-2.1,6.7c1,2.5,3.2,2.8,5.6,1.9c1.3-0.5,3.6-2,4.4-3.2c1.5-1.9,0.3-4.1,1.7-5.9
	c1.8-2.4-2.8-3.2-3.4-5.9c-0.6-2.8,4.1-5.1,6.6-6.4c5.1-2.8,7.5-6.9,12.6-9.6c1.1-0.6,4.3-4.4,6.3-6.7c2.9-3.4,5-5.5,7-11.2
	c1.2-3.2,1.8-9.4,2.3-12.8c1.1-6.6,1.3-10.4,2.3-17c0.3,0.2,2.1,3.5,2.5,3.8c13.8,20.4,24.7,40.4,31.8,64.6l-2.4-0.9
	c0.4,1.3,1.9,2.6,3.5,4.6c1.3,4.6,2.4,9.2,3.4,13.8c-0.1,0.2-0.2,0.4-0.4,0.5c-1.2,0.6-2.8-0.2-3.8,0.7c-0.6,0.5-0.6,1.4-0.6,2.2
	c0.2,3.1,1.8,6.1,1.4,9.1c-0.1,0.7-0.4,1.5-1.1,1.7c-0.8,0.2-1.5-0.5-1.8-1.2c-0.2-0.7-0.2-1.5-0.5-2.2c-0.5-1.5-2-2.4-3.5-2.5
	s-3.1,0.5-4.4,1.3c-0.6,0.4-1.2,0.9-1.4,1.6c-0.6,1.8,1.5,3.2,2.8,4.7c1.1,1.3,1.6,3.1,1.4,4.8c-0.1,0.4-0.1,0.9,0.1,1.2
	c0.1,0.2,0.4,0.4,0.6,0.4c2.1,0.8,4.5-0.2,5.9-1.9c1.5-1.6,2.2-3.8,3-5.9c0.8-2.1,1.6-4.2,3.2-5.7c0.2-0.2,0.4-0.3,0.6-0.4
	c0,0,0.1,0.1,0.1,0.1c0.2,1,0.4,2,0.5,3c-0.3,2.2-0.5,4.4-0.8,6.5c-0.1,1.1-0.3,2.3-1.1,3.1c-0.8,0.9-2.1,1.2-3.2,1.5
	c-2,0.6-4,1.4-5.8,2.4c-0.8,0.4-1.6,0.9-2.1,1.6c-0.4,0.6-0.5,1.3-0.6,2c-0.2,1.5-0.3,3-0.2,4.5c0.1,1.4,0.5,3.1,1.9,3.2
	c1.1,0.1,1.8-1.1,2.1-2.1c0.2-1,0.1-2.1,0.6-3.1c0.4-0.6,0.9-1.2,1.5-1.6c0.4-0.4,0.8-0.6,1.2-0.7c1.1-0.1,1.8,1.3,1.7,2.4
	c-0.1,1.1-0.5,2.3-0.1,3.3c0.6,1.3,2.3,1.6,3.7,1.6c1.4-0.1,2.6-0.1,3.9,0.4c0.2,2.9,0.3,5.8,0.4,8.8c-0.2,3.8-0.7,7.5-1.2,10.8
	c-0.6,0.5-2.1,4.6-5.7,5.2c-6.3,1-10.2-0.1-13,5.1c-0.1,0.2-0.4,0.4-0.5,0.5c-0.3,0.8,0.6,1.4,1.4,1.5c1.5,0.4,3.2,0.4,4.7,0.1
	c4.6-0.9,9.5-3,14.2-4.2c-1.7,34.3-10.4,66.8-24.8,96c4.6-0.9,9.1-1.8,13.7-2.6c14.5-32.1,22.7-67.8,22.7-105.4
	C1642.5,346.1,1630,302.5,1608.4,265z M1215.5,345.9c-6.5-12.1-11.3-25.2-14.1-38.7c-0.4-1.9-0.8-3.9-0.8-5.9
	c0.1-5.8,3.6-11.9,0.9-17.1c-0.7-1.4-1.9-2.7-2-4.3c-0.1-1.7,1.1-3.2,1.7-4.7c1.4-3.2,0.5-6.9,0.2-10.4c-0.3-3.5,0.4-7.6,3.4-9.3
	c1.2,0.9,1.8,2.6,1.1,2.2c2,6.8,2.9,14,2.6,21.1c-0.1,1.2-0.1,2.5,0.5,3.5c0.4,0.7,1.2,1.2,1.6,1.9c1.2,1.8,0.3,4.1-0.2,6.2
	c-1.4,5.7,0.6,11.5,2.1,17.1c2.7,10,4.1,20.3,5.4,30.5C1218.4,341,1218.3,344.8,1215.5,345.9z M1218.5,227.7
	c-1.2,1.1-2.6,3.2-3.8,4.4c-1,1.1-1.8,2.5-3,3.5c-1.2,1-3.2,2-4.4,1c-0.8-0.7-1.3-1-2.2-1.6c-0.5-0.4-0.6-1.6-1.1-1.9
	c-0.8-0.6-1.2-0.8-0.9-1.8c0-0.2,0.9-1.5,1-1.7c2.9-3.2,5.9-5.9,8.9-9c1-0.6,1.4-1.9,2.5-2.1c1-0.2,2.2-0.4,2.6-1.4
	c0.3-0.6,0.1-1.4,0.1-2.1c0-0.4,0.1-0.8,0.3-1.2c0.8-0.7,1.5-1.5,2.2-2.2c0.6-0.2,1.2-0.3,1.8-0.1c1.8,0.4,3,2.2,3.2,2.4
	C1227.1,214.6,1222.7,223.8,1218.5,227.7z M1623,430.6c-0.2-0.4-0.6-0.5-0.8-0.8c-0.8-0.8-0.5-2.1-0.4-3.2c0.1-1.1-0.2-2.5-1.3-2.7
	c-0.4-0.1-0.8,0.1-1.2,0.1c-0.8-0.1-1.5-0.9-1.7-1.7c-0.2-0.8-0.1-1.7,0.1-2.6c0.1-0.4,0.2-0.8,0.5-1c0.2-0.2,0.6-0.3,0.9-0.4
	c1.5-0.4,2.5-2.1,2.1-3.5c0.6,0.3,0.3-0.6-0.3-1.1c-0.5-0.5-1.3-0.6-2-0.8c-0.5,1.1-1.8,1.6-3,1.4c-0.5-0.1-1.1-0.3-1.3,0.1
	c-0.2,0.2-0.1,0.5-0.1,0.8c0.1,0.9-0.1,1.9-0.7,2.6c-0.6,0.6-1.8,0.9-2.5,0.4c-0.5-0.4-0.8-1-1.2-1.5c-0.9-1.1-2.5-1.6-3.9-1.2
	c-1.4,0.5-2.4,1.8-2.5,3.2c-0.1,1.3,0.5,2.6,0.1,3.8c-0.2,0.5-0.5,0.8-0.7,1.2c-1.4,2.1-1.4,4.6-1.4,7.1c0,0.8,0.1,1.8,0.7,2.2
	c0.5,0.4,1.1,0.4,1.5,0.7c0.5,0.4,0.5,1.2,0.5,1.8c0,1.8,0.1,3.5,0.5,5.1c0.1,0.7,0.3,1.4,0.8,1.9c0.5,0.5,1.4,0.7,1.8,0.2
	c0.6-0.6,0.4-1.6,0.9-2.2c0.3-0.4,0.8-0.4,1.3-0.6c1-0.4,1.7-1.3,1.9-2.3c0.3-1.8-0.8-3.9,0.5-5.1c0.7-0.6,1.9-0.5,2.7,0.1
	c0.8,0.6,1.2,1.6,1.5,2.5c0.3,0.8,0.5,1.8,1.1,2.4c1.2,1.2,3.4,0.6,4.4-0.7c1.1-1.3,1.3-3.1,1.5-4.6
	C1623.2,431.4,1623.2,430.9,1623,430.6z M1616.9,336.1c-2.1-1.4-4.9-0.1-7.3-1.1c-2-0.8-3.1-3.1-3.2-5.2c-0.1-2.2,0.5-4.3,0.9-6.5
	c0.4-2.1,0.5-4.5-0.5-6.4c-0.4-0.6-0.8-1.2-1.5-1.5c-0.6-0.2-1.2-0.2-1.9-0.2c-2.1,0.1-4.1,0.2-5.7-0.5c-0.3,4.1,1.4,8.2,0.3,12.2
	c-0.6,2.2-2.1,4.4-1.4,6.6c0.6,1.9,2.8,2.9,4.1,4.5c1.6,1.9,2.1,4.5,2.6,6.9c0.2,1.2,0.6,2.4,1.5,3.1c0.8,0.8,2.3,1.1,3.1,0.3
	c0.6-0.6,0.8-1.5,0.7-2.4c0-1.3-0.2-2.6-0.6-3.9c-0.1-0.3-0.2-0.6-0.1-0.9c0.1-0.4,0.5-0.6,0.8-0.9c1.4-0.9,3.6-1.8,4.6-0.4
	c0.5,0.6,0.4,1.5,0.9,2.2c0.7,1.1,2.4,1.1,3.4,0.2c1-0.8,1.2-2.3,1-3.6C1618.5,337.8,1617.9,336.8,1616.9,336.1z M1617.3,451.6
	c-0.5-0.8-0.9-1.6-1.4-2.4c-1.1,0.8-2.6,1.2-3.9,1.2c-0.5,0-1-0.1-1.5,0.1c-1.2,0.3-1.6,1.6-2.2,2.6c-0.8,1.5-2.1,2.8-3.7,3.5
	c-0.5,0.2-1.1,0.4-1.6,0.4c-0.6-0.1-1.1-0.6-1.2-1.1c0-0.6,0.5-1.1,1-1.5c-0.6-0.6-1.6-0.6-2.3-0.1c-0.6,0.6-0.7,1.5-1.4,2
	c-0.3,0.2-0.7,0.4-1.1,0.4c-0.9,0.2-1.8,0.4-2.7,0.5c-1.1,0.2-2.2,0.5-2.8,1.4c-0.5,0.8-0.3,2.1,0.5,2.6c0.8,0.6,2,0.5,2.7-0.2
	c0.5-0.6,0.8-1.4,1.4-1.8c0.5-0.3,1.2-0.2,1.7-0.6c0.5-0.3,0.8-1,1.4-0.9c0.4,0.1,0.6,0.6,1,0.9c1.1,1.1,3.5-0.1,4.4,1.2
	c0.3,0.5,0.2,1.1,0.5,1.6c0.6,1.1,2.3,0.9,3.1,0c0.8-0.9,0.9-2.2,0.9-3.4c0.1-1.2,0.1-2.5,0.9-3.4c0.8-1.1,2.4-1.4,3.7-1.4
	c0.8,0,1.7,0.1,2.4-0.5C1617.5,452.2,1617.5,450.8,1617.3,451.6z M1602.6,405.7c-0.8,0.2-1.6,0.8-2.2,0.4c-0.2-0.2-0.4-0.6-0.4-0.9
	c-0.8-2.9-1.6-5.9-2.4-8.8c0.2-0.4,0.8-0.1,0.8,0.3c0,0.1-0.1,0.2-0.1,0.2c1.7-2.4,3.4-4.8,5.2-7.2c0.5-0.7,1-1.5,0.8-2.4
	c-0.3-1.2-1.8-1.5-2.9-1.4c-1.2,0.1-2.5,0.3-3.5-0.4c-0.8-0.6-1.1-1.6-1.6-2.5c-1.5-2.2-5.2-1.8-7.2,0.1c-2,1.8-2.9,4.5-4.2,6.9
	c-1.4,2.6-3.2,5-5,7.4c-3.4,4.3-6.8,8.7-11.3,11.7c-1.1,0.7-2.3,1.4-2.9,2.5c-0.8,1.3-0.6,3-1.5,4.2c-1.2,1.6-3.4,1.7-5.4,1.8
	c-1.9,0.1-4.2,0.5-5.1,2.4c-0.4,0.8-0.2,1.8-0.1,2.8c0.4,3.6,0.8,7.4,1.2,11.1c0.1,0.5,0.2,1,0.6,1.2c0.5,0.4,1.2-0.1,1.9-0.2
	c1.4-0.2,2.4,1.4,2.5,2.8c0.2,1.4-0.2,2.8,0.2,4.1c0.1,0.4,0.3,0.7,0.6,0.9c0.3,0.1,0.6,0.2,0.9,0.2c4.1,0.2,8.2,0,12.3-0.4
	c1.1-0.1,2.4-0.5,2.5-1.6c0.1-0.5-0.1-1.1,0.2-1.4c0.2-0.2,0.5-0.2,0.8-0.1c1.7,0.1,3.6,0.4,4.5,1.9c0.4,0.6,0.6,1.6,1.4,1.6
	c0.6,0.1,1.1-0.6,1.8-0.7c0.6,0,1.3,0.5,1.8,0.2c0.5-0.3,0.4-1,0.4-1.5c0.1-1.1,1.1-1.9,2.1-2.4c1-0.5,2.1-0.7,3.1-1.3
	c2.4-1.5,2.8-4.7,2.5-7.5c-0.2-1.3-0.5-2.6-0.5-4c0.1-1.4,0.7-2.8,1.9-3.4c0.5-0.3,1.1-0.4,1.6-0.7c1.4-0.8,1.9-2.6,1.9-4.2
	c-0.1-1.6-0.5-3.3-0.5-4.9c0-0.2,0.1-0.5,0.2-0.6c0.2-0.2,0.6-0.3,0.9-0.3c1.6-0.1,3.5-0.6,4.3-2.2
	C1605.5,407.6,1604.3,405.3,1602.6,405.7z M1597,294.6c0.2-4.7-0.2-9.6-1.9-14c-0.3-0.7-0.6-1.5-1.2-2c-0.6-0.5-1.5-0.7-2.2-0.3
	c-1.2,0.6-0.8,2.6-1.6,3.6c-0.4,0.4-0.9,0.6-1.2,1c-1.2,1.1-0.9,3-0.6,4.6c0.4,2.2,0.8,4.3,1.2,6.5c0.2,1,0.4,2.2,1.3,2.8
	c0.5,0.4,1.1,0.5,1.7,0.6c1.2,0.2,2.5,0.1,3.5-0.6c0.9-0.8,1.2-1.9,1.2-2.3C1597,294.4,1597,294.4,1597,294.6z M1580.1,459.3
	c-1.4,0.2-2.7-0.8-3.9-1.6c-2.9-1.8-6.6-2.2-9.9-1.4c-3,0.7-5.8,2.4-8.7,3.1c-2.4,0.6-4.9,0.7-7.5,0.8c-1.7,0.1-3.5,0.1-4.9-0.8
	c-1.5-0.8-2.4-2.4-2.8-4.1c-0.4-1.7-0.4-3.4-0.2-5.1c0.1-1.2,0.2-2.7,1.3-3.4c0.5-0.3,1-0.4,1.5-0.6c0.9-0.4,1.5-1.2,1.5-2.2
	c-0.1-0.9-0.8-1.8-1.8-1.9c-0.7,0-1.4,0.4-2,0c-1-0.6-0.2-2.2-0.8-3.3c-1.8-0.4-3.6-0.6-5.4-0.5c-1.1,0.1-2.4,0.6-2.8,0.6
	c0.1,3.1,0.1,6.1,0.2,9.2c0.1,1,0.2,2.2,1.1,2.6c0.4,0.1,0.8,0.1,1,0.4c0.2,0.2,0.2,0.5,0.3,0.8c0.2,2.4-0.3,4.7,0.4,6.9
	c0.6,1.7,1.8,3.2,1.6,5.1c-0.1,0.4-0.2,0.9,0.1,1.2c0.2,0.3,0.6,0.4,1,0.4c3.2,0.2,6.4,0.5,9.6,0.6c1.5,0.1,3,0.2,4.5,0.1
	c2.7-0.2,5.3-1.2,8-1.6c3.5-0.6,7.4-0.1,10.6-1.7c1-0.5,1.9-1.2,3-1.6c1.6-0.5,3.2-0.3,4.9-0.5c1.6-0.1,3.5-0.9,3.9-2.5
	C1583,457.6,1581.4,459,1580.1,459.3z M1552.8,444c-0.3-0.8-0.8-1.4-1.4-1.9c-1.5-0.1-2.9,1.3-2.9,2.8c0,0.3,0.1,0.5,0.2,0.7
	c0.1,0.1,0.3,0.2,0.5,0.2c0.4,0.1,0.8,0.2,1.2,0.4c0.6,0.2,1.3,0.4,1.9,0.1c0.6-0.2,1.1-0.9,1.1-1.6
	C1553.5,443.9,1553.2,443.2,1552.8,444z M1533.8,439.1v-0.2C1533.5,439,1533.6,439.1,1533.8,439.1z M1491,433.4
	c-0.6,1.7,0.6,3.7,2.4,4c1.5,0.3,3.2-1,3.8-0.7C1495.9,434.7,1493.5,433.3,1491,433.4z M1469.8,399.3c-1.1-1.4-2.4-2.7-2.8-4.4
	c-0.1,1-0.1,2.2,0.2,3c0.8,2.1,1.6,4.3,2.5,6.5c0.1,0.2,0.2,0.5,0.5,0.6c0.5,0.2,1-0.3,1.1-0.8
	C1471.8,402.5,1470.9,400.7,1469.8,399.3z M1467.1,369.3c-3.5,3.5-4.1,8.4-2.6,12.6c0.1,0.4,0.5,0.8,0.8,0.6
	c0.1-0.1,0.1-0.2,0.2-0.4C1466.9,378.1,1464.9,373.1,1467.1,369.3z M1464,385.5c-1.5,0-1.2,2.8,0.5,3.5
	C1464.4,387.9,1464.2,386.7,1464,385.5z M1403.5,400.4c-2.4-2.1-5.1-4.2-5.7-7.3c-2.2,3.4-3.4,8.9-2.8,14.4c0.2,2.5,0.9,5.1,2.8,6.7
	c2.2,1.9,5.7,1.8,8.4,0.6c0.8-0.4,1.5-0.8,2-1.5c0.8-0.9,0.9-2.2,0.9-3.4C1408.8,406.1,1406.2,402.9,1403.5,400.4z M1357,395.2
	c-0.5,3.8,0.6,2.5,1,5.2c0.2-2.4,0.5-1.8,0.7-4.2C1357.5,396,1357.3,395.6,1357,395.2z M1265.5,362.3c-1.9-0.3-5.5-1.4-5.7,0.8
	c0.4,2.2,3.4,3.6,5.3,2.5C1267.1,364.3,1267,362.8,1265.5,362.3z M1234.6,489.8c-0.2-1.2-1.8-1.7-3.1-0.5c-1.4,1.1-1.7,3.1-1.6,4.8
	c0.2,1.7-0.6,3.9,1.1,5.1c1.4,0.7,2.3-0.2,3.4-0.2C1234.8,495.5,1234.9,493.3,1234.6,489.8z"/>
<g>
	<g>
		<polygon class="st12" points="584.3,790.6 595.4,801.6 640.7,801.6 629.7,790.6 		"/>
		<path class="st12" d="M854,831.4v-29.8h25.6l-11-11H668.6l11,11h22.7v59.3l13.4,13.4v-72.6h9.9V865l13.4,13.4v-76.7h101.7v20.4
			h-23.2c0,0-24.3,4.6-9.4,36.7c0,0,6.1,13.3,30.1,28.2l1.7-3.3c-4.5-3-8.7-6.7-12.5-10.6c-3-3.2-5.9-6.6-8-10.5
			c-3-5.6-5.2-16.9-0.9-22.8c4.6-6.4,14.4-7,22.2-6.6v35.6l13.4,13.4v-47.9l3.8,0.4L854,831.4z"/>
	</g>
	<path class="st12" d="M725.5,838.8L712.1,825c0,0-9.8-0.6-24.2-0.6c-2.2-8.9-6.4-16-8.7-19.2c-3.4-4.8-13.1-12.8-13.1-12.8
		s-4.5-5-14.6-4.1c-11.3,1-11.4,8.9-7.8,15.3c3.6,6.4,12.4,14.7,19.4,18.3c1.4,0.7,5.3,2.5,8.6,3.4l-1,0.1
		c-9.1,1.6-15.3,3.7-18.6,8.3c-3.8,5.3-4.2,11.8-1.6,17.8c2.7,6.2,8,10.7,13.3,14.6c3.2,2.4,6.1,4.6,10.2,5.2
		c9.3,1.2,14.1-6.8,15.7-14.9c0.1-0.4,0.1-0.7,0.2-1.1c1.3-7.1,1.1-14.2,0.4-20.6l17.6,1L725.5,838.8z M667.2,808
		c-2.9,7.7-11.6,5.9-13,2.5c-3.9-9.4,13.2-10.6,13.2-10.6S667.9,806.1,667.2,808z M676.3,852.2c-5,16.3-14.6,5.8-14.6,5.8
		c-5.7-11.8,10-18.8,16.7-21.2C678.7,840.4,678.4,845.3,676.3,852.2z"/>
	<path class="st12" d="M998.6,896.1l-11.1-11.1c0,11.3-2.5,26.1-15.4,31.7c-19.4,8.5-73.8,11.8-191.3-54.6c2.5-1.4,4.8-2.9,6.5-4.5
		c10.6-9.7,18.3-31.1,6.3-46.2c-12-15.1-11.6-20.3-28-19.7c-7.4,0.3-11,6.1-11.3,12.9c-0.2,3.1,0.2,6.3,0.9,9.3
		c1.8,7.4,9.3,13.2,14.6,18.2l2.7-2.4c-1.4-1.9-2.6-4-3.5-6.1c-2.8-6.6-2.1-12.8,6.3-16.5c12.1-5.3,12.6,12.7,10.9,19.4
		c-2.2,8.3-8,18-15.1,23.1c-0.9,0.7-5.5,4-6.7,3.2c0,0-13.2-7.8-13.3-7.9c-3.7-2.2-8.6,1.4-10.5,4.5c-2.5,4.1,0.7,7.6,3.6,10.2
		c2.5,2.3,5.4,4.5,8.5,6c6,3.1,14.5,2,22-0.8l21.8,12.4c115.5,61.2,167.1,59.2,187,51.1C998.9,922.2,1000.1,907.2,998.6,896.1z"/>
</g>
<g>
	<path class="st12" d="M1161.3,797c3.5,0,7.9-0.3,13.2-0.5v3.4c-6.6,0-7.4,1-7.4,7.3v40.7c0,6.3,0.6,7.3,7.4,7.3v3.4
		c-5.7-0.3-9.9-0.4-12.6-0.4c-2.9,0-7.3,0.2-13.2,0.4v-3.4c6.6,0,7.4-0.9,7.4-7.3v-40.7c0-6.3-0.7-7.3-7.4-7.3v-3.4
		C1154.3,796.7,1158.4,797,1161.3,797z"/>
	<path class="st12" d="M1190,796.9c2.3,0,5.4-0.2,9.3-0.4l33.6,45.3V809c0-7.6-0.6-9.1-8.2-9.1v-3.4c3.9,0.3,7.3,0.4,10.4,0.4
		c2,0,4.9-0.2,8.9-0.4v3.4c-7.1,0.2-7.3,1.7-7.3,9v25.3c0,5.7,0,14-0.3,24.8l-4.5-0.5l-40.1-53.9V846c0,7.7,0.3,9.1,8.2,9.1v3.4
		c-4.2-0.3-7.6-0.4-10.3-0.4c-1.7,0-4.8,0.2-9.3,0.4v-3.4c7.3-0.1,7.8-1.6,7.8-9.1v-38.9c0-6.1-0.7-7.3-7.3-7.3h-0.8v-3.4
		C1184,796.7,1187.3,796.9,1190,796.9z"/>
	<path class="st12" d="M1260.1,796.7c5,0,10.4-0.3,16.2-0.3c21.2,0,33.5,11.8,33.5,31.2c0,19.5-11.4,30.8-32.5,30.8
		c-5.3,0-10.8-0.3-16.4-0.3c-3.5,0-7.3,0.1-11.4,0.3v-3.4c6.3,0,7.2-1,7.2-7.3v-40.7c0-6.2-0.7-7.2-7.2-7.3v-3.4
		C1253.1,796.7,1256.6,796.7,1260.1,796.7z M1267.7,855h6c5.5,0,10-0.3,13.9-2.6c6.7-3.9,10-12.3,10-25.1c0-20.6-7.9-27.4-25-27.4
		h-5V855z"/>
	<path class="st12" d="M1328.8,797c3.5,0,7.9-0.3,13.2-0.5v3.4c-6.6,0-7.4,1-7.4,7.3v40.7c0,6.3,0.6,7.3,7.4,7.3v3.4
		c-5.7-0.3-9.9-0.4-12.6-0.4c-2.9,0-7.3,0.2-13.2,0.4v-3.4c6.6,0,7.4-0.9,7.4-7.3v-40.7c0-6.3-0.7-7.3-7.4-7.3v-3.4
		C1321.7,796.7,1325.8,797,1328.8,797z"/>
	<path class="st12" d="M1379,795.7l19.9,54.8c1.3,3.5,2.5,4.6,6.7,4.6v3.4c-5.4-0.3-9.3-0.4-11.8-0.4c-2.8,0-7.2,0.2-12.9,0.4v-3.4
		c4.1-0.1,6-1,6-3.4c0-0.8-0.1-1.5-0.3-2l-4.6-13.6h-18.4l-3.5,10c-0.8,2.2-1.5,4.1-1.5,5.6c0,2.5,1.2,3.1,5,3.4v3.4
		c-3.5-0.3-6.2-0.3-8.2-0.3c-1.6,0-4.2,0.1-7.8,0.3v-3.4c4.2,0,5.3-1.2,6.6-4.8l20.2-54.6H1379z M1364.7,832.6h16.1l-7.8-23.1
		L1364.7,832.6z"/>
</g>
<g>
	<path class="st12" d="M948.1,847.5c-0.2-0.2-0.5-0.3-0.8-0.3c-0.3,0-0.6,0.1-0.8,0.3c-0.1,0.1-0.2,0.2-0.3,0.3L946,848l-5.4,7.9
		h-21.7c0,0,23.6-15.1,27.2-23.9c3.6-8.8-0.2-25.6-19.6-23.8c-19.5,1.9-18.1,13.9-17.1,17.3c0.5,1.8,3.1,5.7,8.5,4.7c0,0,0,0,0,0
		c2,0,3.6-1.6,3.6-3.7c0-2-1.6-3.7-3.6-3.7c-0.4,0-0.8,0.1-1.1,0.2c-1.3-0.7-2.4-1.7-2.4-3.1c0-3.2,2.7-8.8,10.7-8.6
		c8,0.2,11.5,7.3,10.8,14.7c-0.7,7.3-3.9,15.4-21.5,27.8c-4.3,3-9.3,8-9.3,8v3.1h41l2.7-15.7l0-0.3c0,0,0-0.1,0-0.1
		C948.8,848.2,948.5,847.8,948.1,847.5z"/>
	<path class="st12" d="M1062.7,848c-0.2-0.2-0.5-0.3-0.8-0.3c-0.3,0-0.6,0.1-0.8,0.3c-0.1,0.1-0.2,0.2-0.3,0.3l-0.1,0.2l-5.4,7.9
		h-21.7c0,0,23.6-15.1,27.2-23.9c3.6-8.8-0.2-25.6-19.6-23.8c-19.5,1.9-18.1,13.9-17.1,17.3c0.5,1.8,3.1,5.7,8.5,4.7c0,0,0,0,0,0
		c2,0,3.6-1.6,3.6-3.7c0-2-1.6-3.7-3.6-3.7c-0.4,0-0.8,0.1-1.1,0.2c-1.3-0.7-2.4-1.7-2.4-3.1c0-3.2,2.7-8.8,10.7-8.6
		c8,0.2,11.5,7.3,10.8,14.7c-0.7,7.3-3.9,15.4-21.5,27.8c-4.3,3-9.3,8-9.3,8v3.1h41l2.7-15.7l0-0.3c0,0,0-0.1,0-0.1
		C1063.3,848.7,1063.1,848.2,1062.7,848z"/>
	<path class="st12" d="M1093.3,844.7c0,0,16.1-5.9,17.6-16.7c1.4-10.4-4.9-19.8-20-19.5c-13.9,0.2-17.5,8.4-17.7,8.9
		c-0.2,0.4-3.3,9.6,3.2,12.1c2,0.8,3.5,0.8,4.7,0.5c0.1,0,0.2,0.1,0.3,0.1c2,0,3.6-1.6,3.6-3.7c0-2-1.6-3.7-3.6-3.7
		c-0.5,0-1,0.1-1.4,0.3c-1.5-0.9-2.3-2-2.1-3.6c0.2-2.2,2.3-8.7,11.5-8.1c9.2,0.6,10.4,8.5,9.9,13.9c-1.5,17-11.7,16.6-17.6,21
		c-0.6,0.5-0.7,1.6-0.2,1.7c14.3,1.8,21.8,3.4,22.3,18.5c0.5,15.1-12.3,18.6-16.5,18.8s-10.2-2-8.6-5.4c1.6-3.4-1.1-5-4.4-5.3
		s-5.1,2.5-4.4,5.2c1.3,5.8,8,8.5,16.8,8.8c8.7,0.4,29-4.7,28.6-23.7C1114.8,845.8,1093.3,844.7,1093.3,844.7z"/>
</g>
<path class="st12" d="M1013.8,838.5c0,8.6-2.9,15.7-10.2,21.2c-5.6,4.2-11.6,6.3-18.2,6.3c-7.7,0-14.4-2.7-19.9-8.2
	c-5.5-5.4-8.3-12.7-8.3-20.3c0-4.9,1.3-9.6,3.8-14c2.5-4.4,5.9-7.9,10.2-10.4c5.3-3.1,10.8-4.7,16.5-4.7c3.5,0,7.2,1.1,10.9,2.7
	c3.6,1.6,6.4,4.1,8.7,6.7C1012.1,823.2,1013.8,830.1,1013.8,838.5z M1001.9,836.7c0-7.1-1.5-12.9-4.5-17.3c-3-4.4-7-6.6-11.9-6.6
	c-4.7,0-8.5,2.3-11.4,7c-2.9,4.7-4.4,10.8-4.4,18.3c0,7.7,1.9,13.8,5.8,18.2c2.8,3.2,5.9,4.8,9.4,4.8c5.5,0,9.9-2.7,13.3-8.2
	C1000.7,848.9,1001.9,843.5,1001.9,836.7z"/>
</svg>
