<svg xmlns="http://www.w3.org/2000/svg" xmlns:xlink="http://www.w3.org/1999/xlink" viewBox="0 0 293.6 273.75"><defs><style>.cls-1{fill:none;}.cls-2{clip-path:url(#clip-path);}.cls-3{fill:#39b44a;}.cls-4{fill:#008ed3;}.cls-5{fill:#231f20;}</style><clipPath id="clip-path"><rect class="cls-1" width="199.66" height="106.21"/></clipPath></defs><title>NKN</title><g id="Layer_2" data-name="Layer 2"><g id="Layer_1-2" data-name="Layer 1"><g class="cls-2"><path class="cls-3" d="M99.81,0h62.31c8.27-.33,25.23,4.91,33.77,20.07a25.7,25.7,0,0,1,3.77,13.56v72.44H160.12V36.52c.1-2.94-3.11-7-6.84-7H138.07v76.52H125.51L99.81,80.19h0l-1.53-1.54c-5.25-6.16-5.64-12.6,0-18.87l1.58-1.59h0l28.34-28.5H99.81V0"/><path class="cls-4" d="M0,.16H62.31c9.8-.4,31.81,7,37.54,29.53h-.57L73.79,55.29C65.78,64,65.72,74,73.68,83l23.07,23.24H60.32V36.66c.09-2.93-3.12-7-6.85-7H38.26v76.51H0V.16"/></g><path class="cls-5" d="M199.36,116.55h-2.14v48.7h2.14Zm-13.57,38.53c0,2.69-2.88,9.13-10.66,9.13-3.61,0-7.17-2.33-7.17-7.42,0-8.76,11.46-9.74,17.83-9.61Zm2.2-10.6c0-5.57-1.53-12.8-10.78-12.8a16.51,16.51,0,0,0-9.13,2.87l.86,1.6a14.19,14.19,0,0,1,8.09-2.64c8.82,0,8.82,8,8.82,11.78-13.6-.2-20.09,4.46-20.09,11.87,0,4.22,2.87,8.83,9.49,8.83a12.51,12.51,0,0,0,10.6-5.7H186l.49,5h2a47.77,47.77,0,0,1-.49-7.78Zm-28.64,1c0-12.68-8.76-13.84-11.34-13.84a12.87,12.87,0,0,0-11.51,6.86h-.13l-.18-6.13h-2.08c.18,2.51.24,4.6.24,7.42v25.42h2.15V144.73c0-5.09,4.47-11.22,11-11.22,7.22,0,9.68,5.88,9.68,12.2v19.54h2.14Zm-34,3.25c0,9.07-5.94,15.44-13.11,15.44S99.58,157.1,99.58,149c0-7.78,4.41-15.49,13-15.49,8.94,0,12.74,8.33,12.74,15.31m-12.81-17.09c-7.77,0-15.18,6.13-15.18,17.45,0,10.24,6.43,16.86,14.82,16.86,7,0,15.38-5.15,15.38-17.47,0-9.92-5.89-16.84-15-16.84m-21.9.73H88.51v32.84h2.15Zm1.1-9.43a2.25,2.25,0,0,0-2.14-2.45A2.33,2.33,0,0,0,87.41,123a2.29,2.29,0,0,0,2.15,2.45,2.23,2.23,0,0,0,2.2-2.45M71,132.41h-5.7v1.9H71v21.87c0,3.86.49,9.75,7.16,9.75a10.34,10.34,0,0,0,4.23-.81l-.49-1.59a9.77,9.77,0,0,1-3.61.61c-3.56,0-5.15-3.06-5.15-7.23v-22.6h9.68v-1.9H73.16v-7l-2.14,1ZM58.36,155.08c0,2.69-2.88,9.13-10.66,9.13-3.61,0-7.17-2.33-7.17-7.42,0-8.76,11.46-9.74,17.83-9.61Zm2.2-10.6c0-5.57-1.53-12.8-10.78-12.8a16.51,16.51,0,0,0-9.13,2.87l.86,1.6a14.19,14.19,0,0,1,8.09-2.64c8.82,0,8.82,8,8.82,11.78-13.6-.2-20.09,4.46-20.09,11.87,0,4.22,2.87,8.83,9.49,8.83a12.51,12.51,0,0,0,10.6-5.7h.12l.49,5h2a46.69,46.69,0,0,1-.5-7.78ZM31.67,118.93H29.53v24.54c0,7.3,0,12.33.43,18.53l-.13.12a155.1,155.1,0,0,0-8.63-14.23L2,118.93H0v46.32H2.14v-24.9c0-10.26,0-13.14-.36-18L2,122.3c2.39,4.66,5.45,9.2,9,14.61l18.62,28.34h2.14Z"/><path class="cls-5" d="M272,198.74c.37-3.93,2.58-9.07,7.79-9.07,5.45,0,7.1,5,7,9.07H272m18.69,14a21.19,21.19,0,0,1-8.51,1.59c-5.34,0-10-2.88-10.23-10.48h21.44a21.77,21.77,0,0,0,.18-3c0-8.33-3.8-16.23-13.29-16.23s-15.2,8-15.2,18.07c0,10.29,5.88,17.1,16.06,17.1a26.35,26.35,0,0,0,10.71-2ZM252.89,205c0,5.64-3.68,8.45-7.35,8.45-5.27,0-8.28-4.72-8.28-11.33,0-7.23,3.43-11.89,8.34-11.89,4.34,0,7.29,3.67,7.29,8.15Zm1.1-19.67-.31,4.53h-.12c-1.4-2.69-4.22-5.26-9.25-5.26C237,184.59,230,191,230,202.41c0,9.44,5.45,16.48,13.41,16.48a10.59,10.59,0,0,0,9.38-5H253v3.25c0,7.66-3.92,10.73-9.43,10.73a18.44,18.44,0,0,1-9.14-2.39L232.79,231c2.64,1.59,6.74,2.45,10.66,2.45,16,0,16.54-12.43,16.54-19.18V195.06c0-4.53.13-7.35.31-9.74Zm-36.18,19.91c0,4.72-3,8.76-7.59,8.76-5.4,0-8.34-5.08-8.34-11.7s3-12.07,8.46-12.07c4,0,7.47,3.25,7.47,8.76Zm7.11-35.29h-7.11v19.18h-.12c-1.47-2.57-4.6-4.53-8.95-4.53-7.53,0-14.09,6.49-14.09,17.95,0,10.41,5.83,17.22,13.49,17.22a11.26,11.26,0,0,0,10.22-5.95h.19l.36,5.27h6.25c-.12-2.33-.24-6-.24-9Zm-54.74,28.8c.37-3.93,2.57-9.07,7.77-9.07,5.46,0,7.11,5,7.05,9.07Zm18.68,14a21.23,21.23,0,0,1-8.51,1.59c-5.33,0-10-2.88-10.24-10.48h21.45a21.77,21.77,0,0,0,.18-3c0-8.33-3.8-16.23-13.3-16.23s-15.19,8-15.19,18.07c0,10.29,5.88,17.1,16.05,17.1a26.45,26.45,0,0,0,10.73-2Zm-30.73-42.77H151v49.14h7.1Zm-17.74,15.38-3.91,15.93c-.93,3.92-1.72,7.54-2.27,11H134c-.68-3.56-1.6-7.17-2.64-11.09L127,185.32h-5.83l-4.65,16.23c-1,3.49-2,7.24-2.69,10.73h-.12c-.62-3.56-1.42-7.17-2.21-10.79l-3.74-16.17h-7.35l9.68,33.76h6.43l4.6-14.89a80.12,80.12,0,0,0,2.63-10.84h.18a104.76,104.76,0,0,0,2.52,10.78l4.35,15h6.43l10.23-33.76Zm-49,16.79c0,6.74-3.18,12.31-8.33,12.31s-8.33-5.57-8.33-12.19c0-5.82,2.33-12.31,8.39-12.31s8.27,6.61,8.27,12.19m-8-17.52c-9,0-15.93,6.43-15.93,17.82,0,10.9,6.68,17.35,15.44,17.35,7.59,0,15.8-5.22,15.8-17.83,0-10.36-6.06-17.34-15.31-17.34M62.52,198.43c0-10.41-5.88-13.84-11.15-13.84a11.57,11.57,0,0,0-10.23,5.75H41l-.37-5H34.41c.12,2.88.24,5.76.24,9.49v24.27h7.1V198.74c0-5.39,3.74-8.27,7.23-8.27,4.84,0,6.44,4,6.44,8.82v19.79h7.1Zm-46.59-6.29,15.38-20H22.67L10.6,189c-1.11,1.65-2.27,3.37-3.37,5.21H7v-22H0v46.93H7V201.84L11,196.93l13,22.15h8.27Z"/><path class="cls-5" d="M196,253.83l13.54-13.66H206.8l-12.31,12.75c-1,1.1-2.51,2.56-3.31,3.48h-.12V224.3h-2.15V273h2.15V258.73l3.49-3.55L208.76,273h2.7L196,253.83m-11.86-14.21a4.36,4.36,0,0,0-1.23-.18c-4.65,0-8,3.55-9.37,7.6h-.18l-.12-6.87h-2c.19,3.19.25,6.68.25,9.68V273h2.14V254.63c0-7.35,3.8-13.23,9.13-13.23a11.18,11.18,0,0,1,1.41.12Zm-21.67,16.91c0,9.07-5.93,15.43-13.1,15.43s-12.68-7.1-12.68-15.25c0-7.78,4.41-15.49,13-15.49,8.95,0,12.74,8.32,12.74,15.31m-12.8-17.09c-7.78,0-15.19,6.12-15.19,17.46,0,10.22,6.43,16.85,14.83,16.85,7,0,15.37-5.15,15.37-17.47,0-9.92-5.88-16.84-15-16.84m-19.52.73-6.3,19.54c-1.29,4-2.33,7.17-3.07,10.11h-.25c-.85-3.06-1.83-6.19-3.24-10.23l-6.8-19.42h-2.45l-6.93,19.61c-1.4,3.85-2.57,7.1-3.42,10h-.13c-.85-3.06-1.78-6.19-2.94-10.11L88.7,240.17H86.19L96.54,273h1.84l7-19.36c1.47-3.92,2.82-7.29,3.86-11.15h.19c1,4,2.08,7,3.55,11.15L119.63,273h1.79l11.26-32.84Zm-56.77,0H67.71v1.9H73.4v21.87c0,3.86.5,9.75,7.17,9.75a10.18,10.18,0,0,0,4.23-.81l-.49-1.59a9.49,9.49,0,0,1-3.61.62c-3.55,0-5.15-3.06-5.15-7.23V242.07h9.68v-1.9H75.55v-7l-2.15,1ZM40.84,253.83c.61-5.45,4.1-12.68,11.76-12.68,8.83,0,10.42,9,10.35,12.68Zm21.93,16a18.35,18.35,0,0,1-9.13,2.09c-8.27,0-13.11-5.89-13-16.18H65.28a5.28,5.28,0,0,0,.06-1c0-6.75-2.75-15.26-12.49-15.26-8,0-14.46,6.37-14.46,17.76,0,9.56,5.75,16.49,14.94,16.49,6,0,9.26-1.66,10.18-2.22Zm-31.1-43.13H29.53v24.54c0,7.3,0,12.33.43,18.53l-.12.12a156.41,156.41,0,0,0-8.64-14.23L2,226.69H0V273H2.15v-24.9c0-10.26,0-13.14-.37-18l.18-.05c2.39,4.65,5.45,9.19,9,14.59L29.53,273h2.14Z"/></g></g></svg>